<svg width="139" height="43" viewBox="0 0 139 43" fill="none" xmlns="http://www.w3.org/2000/svg">
<path fill-rule="evenodd" clip-rule="evenodd" d="M20.5581 42.1286L30.0581 31.1877L34.0982 26.5348L43.5982 15.594L46.8774 11.8174L47.6384 10.9408L57.1384 0H36.6163H36.5801L27.0803 10.9408L23.0399 15.594L0 42.1286H20.5581ZM106.778 10.9408H138.486V0H97.531L97.4043 0.145967L106.778 10.9408ZM120.318 26.5348H138.486V15.594H110.818L120.318 26.5348ZM138.486 31.1877H124.358L133.858 42.1286H138.486V31.1877ZM98.091 10.9408L93.061 5.14804L88.031 10.9408L83.9907 15.594L82.7818 16.9863L91.073 26.5348L95.113 31.1877L104.613 42.1286H125.171L115.671 31.1877L111.631 26.5348L102.131 15.594L98.091 10.9408ZM80.2147 26.5348L77.3529 23.2387L74.4907 26.5348L70.4507 31.1877L67.0737 35.0769L73.1966 42.1286H93.7549L84.2549 31.1877L80.2147 26.5348ZM77.5327 10.9408H78.331L87.831 0H68.0327H67.2728L62.2236 5.81488L57.7728 10.9408L53.7325 15.594L51.9444 17.6531L44.2325 26.5348L40.1924 31.1877L30.6924 42.1286H51.2507L60.7507 31.1877L62.2236 29.4913L64.7908 26.5348L72.5027 17.6531L74.2908 15.594L77.9319 11.4007L77.5327 10.9408Z" fill="white"/>
</svg>
