<svg width="101" height="110" viewBox="0 0 101 110" fill="none" xmlns="http://www.w3.org/2000/svg">
<path d="M79.375 59.875V65.2501C79.375 80.1388 75.806 94.5169 69.0819 107.422L67.8617 109.68L58.4716 104.445C64.7066 93.2645 68.2004 80.7408 68.5874 67.701L68.625 65.2501V59.875H79.375ZM47.125 43.75H57.875V65.2501L57.8481 67.2872C57.4418 82.0023 52.3775 96.209 43.384 107.863L42.1424 109.422L33.8111 102.628C42.0155 92.6081 46.6841 80.161 47.0927 67.2173L47.125 65.2501V43.75ZM52.5 22.2501C59.6277 22.2501 66.4634 25.0815 71.5035 30.1216C76.5435 35.1616 79.375 41.9974 79.375 49.125H68.625C68.625 44.8484 66.9261 40.747 63.9021 37.723C60.8781 34.6989 56.7766 33.0001 52.5 33.0001C48.2234 33.0001 44.1219 34.6989 41.0979 37.723C38.0739 40.747 36.375 44.8484 36.375 49.125V65.2501C36.375 77.2632 31.9675 88.599 24.1684 97.3764L23.0289 98.6127L15.2459 91.1952C21.5344 84.6158 25.2124 75.972 25.5927 66.8787L25.625 65.2501V49.125C25.625 41.9974 28.4565 35.1616 33.4965 30.1216C38.5365 25.0815 45.3723 22.2501 52.5 22.2501ZM52.5 0.750053C65.3298 0.750053 77.6342 5.84669 86.7063 14.9188C95.7784 23.9908 100.875 36.2952 100.875 49.125V65.2501C100.875 74.3768 99.7892 83.3638 97.6661 92.0713L96.919 94.9684L86.5452 92.1412C88.6522 84.4173 89.8401 76.4354 90.082 68.303L90.125 65.2501V49.125C90.125 42.1422 88.1818 35.2971 84.5128 29.3558C80.8438 23.4145 75.5939 18.6115 69.3504 15.4842C63.107 12.3569 56.1165 11.0288 49.1612 11.6484C42.2059 12.2681 35.5603 14.8111 29.968 18.9928L22.3086 11.3281C30.8735 4.46568 41.525 0.733776 52.5 0.750053ZM14.703 18.9337L22.3677 26.5931C17.7578 32.7379 15.1494 40.152 14.8965 47.8297L14.875 49.125L14.8965 59.875C14.8965 65.8951 13.4775 71.7162 10.8007 76.9514L9.96224 78.5102L0.62587 73.1782C2.66837 69.6038 3.86162 65.6155 4.09812 61.4445L4.14649 59.875V49.125C4.11461 38.1511 7.83991 27.4968 14.703 18.9337Z" fill="#CFCFCF"/>
</svg>
