<svg width="304" height="46" viewBox="0 0 304 46" fill="none" xmlns="http://www.w3.org/2000/svg">
<path d="M6.27136 30.2915C6.40633 32.7016 6.97511 34.6586 7.9777 36.1624C9.88647 38.9774 13.2509 40.3849 18.0711 40.3849C20.2305 40.3849 22.1971 40.0764 23.9709 39.4594C27.4029 38.264 29.1188 36.1239 29.1188 33.039C29.1188 30.7253 28.3958 29.0768 26.9498 28.0935C25.4845 27.1295 23.1901 26.2908 20.0666 25.5774L14.3114 24.276C10.5517 23.4276 7.89093 22.4925 6.32921 21.4707C3.62993 19.6968 2.28029 17.0458 2.28029 13.5174C2.28029 9.69987 3.60101 6.56677 6.24244 4.11814C8.88388 1.66951 12.6243 0.445192 17.4637 0.445192C21.9175 0.445192 25.6965 1.5249 28.8007 3.68433C31.9242 5.82447 33.4859 9.25641 33.4859 13.9802H28.0777C27.7885 11.705 27.1715 9.96015 26.2268 8.74548C24.4722 6.52821 21.4934 5.41958 17.2902 5.41958C13.8968 5.41958 11.4578 6.13296 9.97323 7.55972C8.48863 8.98648 7.74633 10.6446 7.74633 12.5341C7.74633 14.6164 8.61395 16.1396 10.3492 17.1036C11.4868 17.7206 14.0607 18.4918 18.0711 19.4173L24.0288 20.7766C26.9016 21.4321 29.1188 22.3286 30.6806 23.4662C33.3798 25.4521 34.7295 28.3345 34.7295 32.1135C34.7295 36.818 33.0135 40.1824 29.5816 42.2069C26.1689 44.2314 22.1971 45.2436 17.6662 45.2436C12.3833 45.2436 8.24762 43.894 5.25913 41.1947C2.27065 38.5147 0.805323 34.8803 0.863165 30.2915H6.27136ZM42.3646 4.37843H47.6282V13.0258H52.5737V17.2771H47.6282V37.4928C47.6282 38.5725 47.9945 39.2955 48.7272 39.6619C49.1321 39.874 49.8069 39.98 50.7516 39.98C51.0023 39.98 51.2722 39.98 51.5614 39.98C51.8506 39.9607 52.188 39.9318 52.5737 39.8932V44C51.976 44.1735 51.3493 44.2988 50.6938 44.376C50.0575 44.4531 49.3634 44.4917 48.6115 44.4917C46.1821 44.4917 44.5337 43.8747 43.666 42.6407C42.7984 41.3875 42.3646 39.7679 42.3646 37.782V17.2771H38.1711V13.0258H42.3646V4.37843ZM61.7994 35.7576C61.7994 37.2614 62.3489 38.4472 63.4479 39.3148C64.5469 40.1824 65.8483 40.6163 67.3522 40.6163C69.1839 40.6163 70.9577 40.1921 72.6736 39.3437C75.5657 37.9363 77.0118 35.6322 77.0118 32.4317V28.2381C76.3755 28.643 75.5561 28.9804 74.5535 29.2504C73.5509 29.5203 72.5676 29.7131 71.6036 29.8288L68.4512 30.2337C66.5617 30.4843 65.1446 30.8796 64.1998 31.4194C62.5996 32.3256 61.7994 33.7717 61.7994 35.7576ZM74.4089 25.2304C75.6043 25.0761 76.4044 24.5748 76.8093 23.7265C77.0407 23.2637 77.1564 22.5986 77.1564 21.7309C77.1564 19.9571 76.5201 18.675 75.2476 17.8845C73.9944 17.0747 72.1916 16.6698 69.8394 16.6698C67.1208 16.6698 65.1928 17.4025 64.0552 18.8678C63.419 19.6776 63.0044 20.8826 62.8116 22.4829H57.9529C58.0493 18.6653 59.2833 16.0143 61.6548 14.5296C64.0456 13.0258 66.8124 12.2738 69.9551 12.2738C73.5991 12.2738 76.5587 12.9679 78.8338 14.3561C81.0896 15.7443 82.2175 17.9037 82.2175 20.8344V38.6786C82.2175 39.2184 82.3236 39.6522 82.5357 39.98C82.767 40.3078 83.2394 40.4717 83.9528 40.4717C84.1841 40.4717 84.4444 40.462 84.7336 40.4427C85.0229 40.4042 85.3313 40.356 85.6591 40.2981V44.1446C84.8493 44.376 84.2324 44.5206 83.8082 44.5784C83.384 44.6363 82.8056 44.6652 82.0729 44.6652C80.2798 44.6652 78.9784 44.0289 78.1686 42.7564C77.7444 42.0816 77.4456 41.1272 77.2721 39.8932C76.2116 41.2814 74.6885 42.4865 72.7026 43.5083C70.7167 44.5302 68.5283 45.0412 66.1375 45.0412C63.2647 45.0412 60.9125 44.1735 59.0808 42.4383C57.2685 40.6837 56.3623 38.4954 56.3623 35.8732C56.3623 33.0004 57.2588 30.7735 59.0519 29.1925C60.845 27.6115 63.1972 26.6378 66.1086 26.2715L74.4089 25.2304ZM90.9227 13.0258H95.8682V18.3761C96.2731 17.335 97.266 16.0721 98.847 14.5875C100.428 13.0836 102.25 12.3317 104.313 12.3317C104.409 12.3317 104.573 12.3413 104.805 12.3606C105.036 12.3799 105.431 12.4184 105.99 12.4763V17.9712C105.682 17.9134 105.393 17.8748 105.123 17.8555C104.872 17.8363 104.593 17.8266 104.284 17.8266C101.662 17.8266 99.6472 18.675 98.2397 20.3717C96.8322 22.0491 96.1285 23.9868 96.1285 26.1848V44H90.9227V13.0258ZM142.113 1.51526V6.57641H127.797V44H121.955V6.57641H107.639V1.51526H142.113ZM144.658 13.0258H149.603V18.3761C150.008 17.335 151.001 16.0721 152.582 14.5875C154.163 13.0836 155.985 12.3317 158.048 12.3317C158.144 12.3317 158.308 12.3413 158.54 12.3606C158.771 12.3799 159.166 12.4184 159.725 12.4763V17.9712C159.417 17.9134 159.128 17.8748 158.858 17.8555C158.607 17.8363 158.328 17.8266 158.019 17.8266C155.397 17.8266 153.382 18.675 151.975 20.3717C150.567 22.0491 149.863 23.9868 149.863 26.1848V44H144.658V13.0258ZM168.228 35.7576C168.228 37.2614 168.778 38.4472 169.877 39.3148C170.976 40.1824 172.277 40.6163 173.781 40.6163C175.613 40.6163 177.386 40.1921 179.102 39.3437C181.994 37.9363 183.441 35.6322 183.441 32.4317V28.2381C182.804 28.643 181.985 28.9804 180.982 29.2504C179.98 29.5203 178.996 29.7131 178.032 29.8288L174.88 30.2337C172.99 30.4843 171.573 30.8796 170.629 31.4194C169.028 32.3256 168.228 33.7717 168.228 35.7576ZM180.838 25.2304C182.033 25.0761 182.833 24.5748 183.238 23.7265C183.469 23.2637 183.585 22.5986 183.585 21.7309C183.585 19.9571 182.949 18.675 181.676 17.8845C180.423 17.0747 178.62 16.6698 176.268 16.6698C173.55 16.6698 171.622 17.4025 170.484 18.8678C169.848 19.6776 169.433 20.8826 169.24 22.4829H164.382C164.478 18.6653 165.712 16.0143 168.084 14.5296C170.474 13.0258 173.241 12.2738 176.384 12.2738C180.028 12.2738 182.987 12.9679 185.263 14.3561C187.518 15.7443 188.646 17.9037 188.646 20.8344V38.6786C188.646 39.2184 188.752 39.6522 188.964 39.98C189.196 40.3078 189.668 40.4717 190.382 40.4717C190.613 40.4717 190.873 40.462 191.162 40.4427C191.452 40.4042 191.76 40.356 192.088 40.2981V44.1446C191.278 44.376 190.661 44.5206 190.237 44.5784C189.813 44.6363 189.234 44.6652 188.502 44.6652C186.709 44.6652 185.407 44.0289 184.597 42.7564C184.173 42.0816 183.874 41.1272 183.701 39.8932C182.64 41.2814 181.117 42.4865 179.131 43.5083C177.145 44.5302 174.957 45.0412 172.566 45.0412C169.693 45.0412 167.341 44.1735 165.51 42.4383C163.697 40.6837 162.791 38.4954 162.791 35.8732C162.791 33.0004 163.688 30.7735 165.481 29.1925C167.274 27.6115 169.626 26.6378 172.537 26.2715L180.838 25.2304ZM209.151 12.1292C212.641 12.1292 215.475 12.9776 217.654 14.6743C219.852 16.3709 221.173 19.2919 221.616 23.4373H216.555C216.246 21.5285 215.543 19.9475 214.444 18.6943C213.345 17.4217 211.581 16.7855 209.151 16.7855C205.835 16.7855 203.463 18.405 202.037 21.6442C201.111 23.7458 200.648 26.339 200.648 29.4239C200.648 32.5281 201.304 35.1406 202.615 37.2614C203.926 39.3823 205.989 40.4427 208.804 40.4427C210.964 40.4427 212.67 39.7872 213.923 38.4761C215.196 37.1458 216.073 35.3334 216.555 33.039H221.616C221.038 37.1458 219.592 40.1535 217.278 42.0623C214.964 43.9518 212.005 44.8965 208.399 44.8965C204.35 44.8965 201.121 43.4216 198.711 40.4717C196.301 37.5024 195.096 33.8006 195.096 29.366C195.096 23.9289 196.416 19.6968 199.058 16.6698C201.699 13.6427 205.064 12.1292 209.151 12.1292ZM226.706 1.51526H231.709V26.1848L245.071 13.0258H251.723L239.865 24.623L252.388 44H245.736L236.076 28.3827L231.709 32.3738V44H226.706V1.51526ZM286.89 1.51526L292.241 16.5252L297.649 1.51526H303.607V22.4829H299.76V5.56418L293.947 22.4829H290.592L284.75 5.56418V22.4829H280.904V1.51526H286.89ZM259.473 5.01469V1.51526H277.347V5.01469H270.492V22.4829H266.328V5.01469H259.473Z" fill="white"/>
</svg>
