<svg width="186" height="43" viewBox="0 0 186 43" fill="none" xmlns="http://www.w3.org/2000/svg">
<path fill-rule="evenodd" clip-rule="evenodd" d="M54.073 22.353C54.073 20.3727 54.0668 20.1211 54.5839 18.2695C54.7904 17.5297 55.1718 16.7657 55.5389 16.1281L56.4494 14.7261C56.8183 14.2355 57.9235 13.0482 58.4508 12.6448C58.6367 12.5026 58.7072 12.484 58.898 12.326C59.097 12.1615 59.1776 12.1184 59.385 11.9709C60.0611 11.4898 60.6899 11.1697 61.4365 10.782C61.9934 10.4927 63.2316 10.0546 63.8243 9.8851C64.6539 9.64803 65.7939 9.4221 66.6248 9.34676L68.3218 9.26378L71.3614 9.59933L73.5954 10.2054C74.8487 10.6535 76.0802 11.2702 77.1319 12.0143L78.0762 12.7503C80.5796 14.9445 82.331 17.8774 82.331 21.0797C82.331 23.5341 82.1067 24.6878 80.9944 26.8508C80.6492 27.5218 80.1756 28.1655 79.725 28.7192C79.2394 29.3156 78.7144 29.8396 78.1172 30.3642C77.0075 31.3392 75.4792 32.1931 74.0407 32.7654C72.1945 33.4998 69.715 34.0225 67.6609 33.8227C66.6837 33.7277 66.9368 33.8456 65.3092 33.6018C64.6283 33.4997 63.7435 33.2543 63.0539 33.0143C62.9163 32.9664 62.8775 32.9537 62.7041 32.8938C60.9298 32.2801 59.6976 31.4197 58.2921 30.3599C57.9724 30.1188 57.9679 30.0105 57.6776 29.7618C56.8489 29.052 56.0836 27.9669 55.5659 27.0688C54.9703 26.0355 54.5053 24.9 54.2684 23.7394L54.073 22.353ZM43.6493 21.5749C43.6493 23.1526 43.8191 23.5084 43.8955 24.615C43.9526 25.4463 44.6312 27.5583 44.9626 28.4274C45.2059 29.0657 45.5064 29.7548 45.8345 30.358C46.4892 31.5615 47.1911 32.7156 48.0592 33.7309L50.1067 35.9844C50.7477 36.6504 52.4786 37.9711 53.3044 38.5121C53.6337 38.7277 53.8657 38.866 54.2014 39.0769C54.8398 39.4781 55.4258 39.7721 56.1047 40.1117C57.085 40.602 58.1213 41.0327 59.1799 41.4018C61.246 42.1221 63.1419 42.4983 65.3684 42.7461C67.6407 42.999 68.7762 42.9948 71.0354 42.7461C74.6052 42.3532 76.0167 41.8754 79.1546 40.6736C81.09 39.9323 83.8204 38.1423 85.3238 36.8364L86.7909 35.4937C87.0399 35.2507 87.2426 35.0532 87.4623 34.8036C89.0815 32.9624 90.0924 31.5038 91.0918 29.3262C91.1133 29.2792 91.1417 29.2208 91.1618 29.1747C91.1975 29.093 91.2394 28.9811 91.2677 28.9131C92.7299 25.4042 93.0991 22.1242 92.5069 18.3948C92.2665 16.8807 91.8635 15.6637 91.2677 14.2367L90.8408 13.2636C89.772 11.2912 89.5588 10.9117 88.0644 9.026C87.2949 8.0553 85.501 6.36387 84.4681 5.57109C82.5561 4.10383 80.2526 2.88818 77.9326 1.98144C77.2299 1.70693 76.495 1.4972 75.7353 1.27281C74.8033 0.99771 74.1972 0.889154 73.2918 0.707359C72.0696 0.46172 70.4613 0.296592 69.2168 0.285795C68.657 0.280748 68.4346 0.155869 67.7887 0.242013C67.3148 0.305271 66.8584 0.247184 66.392 0.302344C65.0898 0.456441 63.8076 0.528969 62.4505 0.839862C59.9526 1.412 58.1852 1.98849 55.9418 3.10883C51.4354 5.35937 48.0395 8.69093 45.808 12.8395C45.6443 13.1438 45.5005 13.4575 45.3702 13.7323L44.5807 15.7348C44.4646 16.1403 44.3843 16.4194 44.2726 16.811L43.9046 18.4013C43.7728 19.4579 43.6493 20.4647 43.6493 21.5749Z" fill="white"/>
<path fill-rule="evenodd" clip-rule="evenodd" d="M137.707 34.0245C138.038 33.814 142.343 28.2701 142.967 27.4879C143.276 27.1003 143.545 26.8101 143.847 26.4135C145.831 23.8134 147.99 21.3146 149.971 18.7168C150.313 18.269 151.597 16.862 151.714 16.4818H151.958C152.085 16.8944 158.87 25.1668 159.825 26.4133C160.062 26.7223 160.235 26.9629 160.486 27.2538C160.727 27.5327 160.951 27.8071 161.161 28.0823L171.759 41.3705C171.886 41.5182 171.967 41.6366 172.088 41.7924C172.294 42.057 172.9 42.9374 173.213 42.9374H184.939C185.122 42.9374 185.118 42.8815 185.265 42.7961C185.184 42.532 182.508 39.3103 182.187 38.8914C182.001 38.6482 181.863 38.4532 181.66 38.2174L180.624 36.9245C180.443 36.6868 180.279 36.5151 180.086 36.2602C179.724 35.7846 179.371 35.3921 179.01 34.9309L172.747 27.0724C172.009 26.2187 171.378 25.2984 170.654 24.4342L158.113 8.73058C157.737 8.28214 157.447 7.87195 157.076 7.43818C156.879 7.2078 156.746 7.00794 156.542 6.77087C155.254 5.28177 154.162 3.66369 152.877 2.17296L152.081 1.16681C151.874 0.927512 152.05 0.998516 151.633 0.9903C151.522 1.40119 149.663 3.56875 149.255 4.08878L146.781 7.1747C145.35 8.87916 144.11 10.6721 142.652 12.3592C142.34 12.7197 142.133 13.0415 141.826 13.4104L131.958 25.7771C131.305 26.5888 131.497 26.282 132.69 27.8426L135.166 30.9263C135.45 31.299 135.72 31.6117 135.997 31.9731C136.287 32.3518 137.374 33.8311 137.707 34.0245Z" fill="white"/>
<path fill-rule="evenodd" clip-rule="evenodd" d="M0.40715 42.9374H14.5767C14.8972 42.9374 15.6753 41.7734 15.88 41.5231C16.2855 41.027 16.6646 40.5206 17.0906 40.028L21.3198 34.7179C21.5439 34.4235 21.7289 34.2221 21.9554 33.926C22.3418 33.4206 24.2221 31.0333 24.4305 30.9121C24.7249 31.0996 25.4062 32.0505 25.6673 32.3844L29.3042 36.9356C30.6497 38.5092 32.2437 40.7251 33.5388 42.2409C33.7001 42.4297 34.014 42.9374 34.284 42.9374H48.4539C49.066 42.9374 48.2712 42.189 48.1626 42.0587C47.8796 41.7188 47.6481 41.4295 47.3956 41.0981L35.9253 26.728C35.6475 26.4018 35.4266 26.1063 35.1638 25.7624C34.9064 25.4255 34.6691 25.1339 34.3885 24.8088L24.8276 12.8122C24.6473 12.5955 24.6411 12.4767 24.2677 12.4498C24.1798 12.7355 22.3797 14.8735 22.0363 15.3217C20.3818 17.4801 18.325 19.8654 16.7262 21.9565L13.6685 25.8084C13.3978 26.1251 13.1678 26.431 12.8992 26.767L5.32536 36.2453C3.86156 38.1603 2.19184 40.1159 0.732771 42.0179C0.385668 42.4704 -0.147485 42.9374 0.40715 42.9374Z" fill="white"/>
<path fill-rule="evenodd" clip-rule="evenodd" d="M89.986 42.9374H104.4C104.646 42.9374 104.899 42.5366 105.101 42.273L112.903 32.4973C113.137 32.204 114.022 31.135 114.091 30.9121C114.402 30.9346 114.294 30.8688 114.694 31.3784C114.881 31.6162 114.998 31.7757 115.182 32.0157C116.544 33.7922 118.53 36.0704 119.786 37.778L121.013 39.3297C121.214 39.5753 123.662 42.8305 124.045 42.9207C124.073 42.9273 124.208 42.9329 124.428 42.9375H138.413L138.44 42.9374C138.526 42.5857 138.366 42.5386 137.904 41.9881C137.757 41.8121 137.673 41.6812 137.544 41.5231C137.405 41.3528 137.274 41.2087 137.137 41.0276C136.887 40.6975 136.643 40.4195 136.371 40.0655L130.314 32.4535C130.053 32.1152 129.802 31.8481 129.53 31.507L123.83 24.3625C123.675 24.1683 123.593 24.0429 123.433 23.8583C122.436 22.7047 120.746 20.4657 119.629 19.0988L114.469 12.6164C114.277 12.4285 114.409 12.5048 114.172 12.4498L105.807 22.868C105.531 23.1878 105.297 23.5176 105.052 23.8387L102.006 27.6297C100.584 29.494 98.9038 31.4574 97.4781 33.3172L95.2149 36.1616C95.0694 36.3506 94.9894 36.4239 94.8388 36.6131L90.2762 42.3407C90.0765 42.5708 89.9956 42.5641 89.986 42.9374Z" fill="white"/>
<path fill-rule="evenodd" clip-rule="evenodd" d="M27.1992 8.84209C27.1992 9.10333 27.3959 9.28454 27.5401 9.46574L31.6784 14.6424C31.9892 15.0227 34.2537 17.9488 34.5285 18.1087C34.725 17.9837 35.2684 17.2511 35.4569 17.0053L41.7609 9.11191C43.7756 6.52747 46.1133 3.75971 48.0637 1.21741C48.227 1.00463 48.3244 0.885971 48.5011 0.677653C48.6926 0.451731 48.8527 0.327793 48.861 0H34.447C34.1723 0 33.6278 0.782342 33.4695 0.990073L29.007 6.5926C28.8376 6.81512 27.1992 8.83997 27.1992 8.84209Z" fill="white"/>
<path fill-rule="evenodd" clip-rule="evenodd" d="M117.348 8.48847C117.348 8.75101 118.799 10.4196 119.125 10.8361C119.733 11.615 120.31 12.3166 120.914 13.1013C121.499 13.8605 124.413 17.3533 124.515 17.6844C124.877 17.6109 124.888 17.4897 125.069 17.2465L137.87 1.20227C138.092 0.911089 138.648 0.374855 138.684 0H124.026L122.821 1.57102C122.659 1.78145 122.542 1.89682 122.38 2.10737C122.001 2.59923 117.348 8.33555 117.348 8.48847Z" fill="white"/>
<path fill-rule="evenodd" clip-rule="evenodd" d="M103.586 17.5429C103.961 17.5158 103.677 17.6687 104.144 17.1079L111.078 8.4177C110.841 8.02865 110.545 7.70202 110.264 7.35616L105.198 1.00451C105.037 0.794201 104.512 0 104.237 0H89.9859C89.4629 0 90.0921 0.55959 90.4418 1.01883L93.0799 4.31553C94.2599 5.76848 95.4027 7.24948 96.5817 8.70125L100.947 14.1759C101.267 14.579 101.527 14.8933 101.843 15.3077C102.042 15.5692 103.515 17.3131 103.586 17.5429Z" fill="white"/>
<path fill-rule="evenodd" clip-rule="evenodd" d="M14.0883 17.5429C14.1589 17.2796 17.1535 13.563 17.6371 12.9858L21.2545 8.4177C21.2712 8.28989 18.2008 4.51353 17.95 4.21438L16.2871 2.12215C16.0224 1.77722 14.7348 0.248574 14.6583 0H0C0.0090525 0.35819 0.404791 0.703479 0.76554 1.17422C1.06616 1.56668 1.32842 1.88695 1.64107 2.25277L8.20954 10.4825C8.36343 10.679 8.48935 10.8489 8.63203 11.035L13.4686 17.0908C13.6575 17.3435 13.6979 17.5147 14.0883 17.5429Z" fill="white"/>
</svg>
